<?xml version="1.0" encoding="utf-8"?>
<!-- Generator: Adobe Illustrator 17.0.0, SVG Export Plug-In . SVG Version: 6.00 Build 0)  -->
<!DOCTYPE svg PUBLIC "-//W3C//DTD SVG 1.1//EN" "http://www.w3.org/Graphics/SVG/1.1/DTD/svg11.dtd">
<svg version="1.1" id="Layer_1" xmlns="http://www.w3.org/2000/svg" xmlns:xlink="http://www.w3.org/1999/xlink" x="0px" y="0px"
	 width="16px" height="16px" viewBox="0 0 16 16" enable-background="new 0 0 16 16" xml:space="preserve">
<circle opacity="0.5" cx="8" cy="8" r="6.5"/>
<g>
	<path fill="#FFFFFF" d="M8,16c4.418,0,8-3.582,8-8s-3.582-8-8-8S0,3.582,0,8S3.582,16,8,16z M8,1.5c3.59,0,6.5,2.91,6.5,6.5
		s-2.91,6.5-6.5,6.5S1.5,11.59,1.5,8S4.41,1.5,8,1.5z"/>
	<path fill="#FFFFFF" d="M10.457,4.957L9.043,3.543L4.586,8l4.457,4.457l1.414-1.414L7.414,8L10.457,4.957z"/>
</g>
</svg>
