<?xml version="1.0" encoding="utf-8"?>
<!-- Generator: Adobe Illustrator 17.0.0, SVG Export Plug-In . SVG Version: 6.00 Build 0)  -->
<!DOCTYPE svg PUBLIC "-//W3C//DTD SVG 1.1//EN" "http://www.w3.org/Graphics/SVG/1.1/DTD/svg11.dtd">
<svg version="1.1" id="Layer_1" xmlns="http://www.w3.org/2000/svg" xmlns:xlink="http://www.w3.org/1999/xlink" x="0px" y="0px"
	 width="16px" height="16px" viewBox="0 0 16 16" enable-background="new 0 0 16 16" xml:space="preserve">
<circle opacity="0.5" cx="8" cy="8" r="6.5"/>
<g>
	<path fill="#FFFFFF" d="M16,8c0-4.418-3.582-8-8-8S0,3.582,0,8s3.582,8,8,8S16,12.418,16,8z M14.5,8c0,3.59-2.91,6.5-6.5,6.5
		S1.5,11.59,1.5,8S4.41,1.5,8,1.5S14.5,4.41,14.5,8z"/>
	<path fill="#FFFFFF" d="M8.586,8l-3.043,3.043l1.414,1.414L11.414,8L6.957,3.543L5.543,4.957L8.586,8z"/>
</g>
</svg>
