<?xml version="1.0" encoding="utf-8"?>
<!-- Generator: Adobe Illustrator 17.0.0, SVG Export Plug-In . SVG Version: 6.00 Build 0)  -->
<!DOCTYPE svg PUBLIC "-//W3C//DTD SVG 1.1//EN" "http://www.w3.org/Graphics/SVG/1.1/DTD/svg11.dtd">
<svg version="1.1" id="Instagram_w_x2F__circle" xmlns="http://www.w3.org/2000/svg" xmlns:xlink="http://www.w3.org/1999/xlink"
	 x="0px" y="0px" width="40px" height="40px" viewBox="0 0 40 40" enable-background="new 0 0 40 40" xml:space="preserve">
<path fill="#FFFFFF" d="M26.25,20c0,3.452-2.798,6.25-6.25,6.25s-6.25-2.798-6.25-6.25c0-0.356,0.038-0.704,0.102-1.042h-2.185
	v8.327c0,0.579,0.469,1.048,1.048,1.048h14.573c0.577,0,1.046-0.469,1.046-1.048v-8.327h-2.185C26.212,19.296,26.25,19.644,26.25,20
	z M20,24.167c2.3,0,4.167-1.867,4.167-4.167S22.3,15.833,20,15.833S15.833,17.7,15.833,20S17.7,24.167,20,24.167z M25,15.625h2.498
	c0.346,0,0.627-0.281,0.627-0.625v-2.498c0-0.346-0.281-0.627-0.627-0.627H25c-0.346,0-0.627,0.281-0.627,0.627V15
	C24.375,15.344,24.656,15.625,25,15.625z M20,0C8.954,0,0,8.954,0,20s8.954,20,20,20s20-8.954,20-20S31.046,0,20,0z M30.417,28.102
	c0,1.273-1.042,2.315-2.315,2.315H11.898c-1.273,0-2.315-1.042-2.315-2.315V11.898c0-1.273,1.042-2.315,2.315-2.315h16.204
	c1.273,0,2.315,1.042,2.315,2.315V28.102z"/>
</svg>
