<?xml version="1.0" encoding="utf-8"?>
<!-- Generator: Adobe Illustrator 17.0.0, SVG Export Plug-In . SVG Version: 6.00 Build 0)  -->
<!DOCTYPE svg PUBLIC "-//W3C//DTD SVG 1.1//EN" "http://www.w3.org/Graphics/SVG/1.1/DTD/svg11.dtd">
<svg version="1.1" id="Pinterest_w_x2F__circle" xmlns="http://www.w3.org/2000/svg" xmlns:xlink="http://www.w3.org/1999/xlink"
	 x="0px" y="0px" width="40.003px" height="40.003px" viewBox="562.998 427.998 40.003 40.003"
	 enable-background="new 562.998 427.998 40.003 40.003" xml:space="preserve">
<path fill="#FFFFFF" d="M583,427.998c-11.047,0-20.002,8.955-20.002,20.002c0,11.047,8.955,20.002,20.002,20.002
	c11.047,0,20.002-8.955,20.002-20.002C603.002,436.953,594.047,427.998,583,427.998z M584.369,452.74
	c-1.283-0.098-1.821-0.733-2.825-1.342c-0.552,2.898-1.227,5.678-3.227,7.13c-0.619-4.384,0.904-7.671,1.613-11.165
	c-1.206-2.031,0.144-6.117,2.69-5.113c3.132,1.242-2.713,7.553,1.211,8.342c4.096,0.821,5.769-7.109,3.229-9.684
	c-3.671-3.723-10.682-0.085-9.82,5.244c0.208,1.302,1.556,1.698,0.538,3.496c-2.348-0.521-3.05-2.373-2.959-4.842
	c0.144-4.042,3.632-6.873,7.128-7.263c4.423-0.492,8.574,1.623,9.149,5.786C591.738,448.025,589.096,453.107,584.369,452.74z"/>
</svg>
