<?xml version="1.0" encoding="utf-8"?>
<!-- Generator: Adobe Illustrator 17.0.0, SVG Export Plug-In . SVG Version: 6.00 Build 0)  -->
<!DOCTYPE svg PUBLIC "-//W3C//DTD SVG 1.1//EN" "http://www.w3.org/Graphics/SVG/1.1/DTD/svg11.dtd">
<svg version="1.1" id="Youtube_w_x2F__circle" xmlns="http://www.w3.org/2000/svg" xmlns:xlink="http://www.w3.org/1999/xlink"
	 x="0px" y="0px" width="40px" height="40px" viewBox="0 0 40 40" enable-background="new 0 0 40 40" xml:space="preserve">
<path fill="#FFFFFF" d="M23.34,19.652l-4.679-2.183c-0.408-0.19-0.744,0.023-0.744,0.475v4.112c0,0.452,0.335,0.665,0.744,0.475
	l4.677-2.183C23.748,20.156,23.748,19.844,23.34,19.652z M20,0C8.954,0,0,8.954,0,20s8.954,20,20,20s20-8.954,20-20S31.046,0,20,0z
	 M20,28.125C9.763,28.125,9.583,27.202,9.583,20S9.762,11.875,20,11.875c10.237,0,10.417,0.923,10.417,8.125
	S30.237,28.125,20,28.125z"/>
</svg>
