<?xml version="1.0" encoding="utf-8"?>
<!-- Generator: Adobe Illustrator 17.0.0, SVG Export Plug-In . SVG Version: 6.00 Build 0)  -->
<!DOCTYPE svg PUBLIC "-//W3C//DTD SVG 1.1//EN" "http://www.w3.org/Graphics/SVG/1.1/DTD/svg11.dtd">
<svg version="1.1" id="Instagram_w_x2F__circle" xmlns="http://www.w3.org/2000/svg" xmlns:xlink="http://www.w3.org/1999/xlink"
	 x="0px" y="0px" width="40px" height="40px" viewBox="286 376 40 40" enable-background="new 286 376 40 40" xml:space="preserve">
<path fill="#2D80A9" d="M312.25,396c0,3.452-2.798,6.25-6.25,6.25s-6.25-2.798-6.25-6.25c0-0.356,0.038-0.704,0.102-1.042h-2.185
	v8.327c0,0.579,0.469,1.048,1.048,1.048h14.573c0.577,0,1.046-0.469,1.046-1.048v-8.327h-2.185
	C312.212,395.296,312.25,395.644,312.25,396z M306,400.167c2.3,0,4.167-1.867,4.167-4.167s-1.867-4.167-4.167-4.167
	s-4.167,1.867-4.167,4.167S303.7,400.167,306,400.167z M311,391.625h2.498c0.346,0,0.627-0.281,0.627-0.625v-2.498
	c0-0.346-0.281-0.627-0.627-0.627H311c-0.346,0-0.627,0.281-0.627,0.627V391C310.375,391.344,310.656,391.625,311,391.625z M306,376
	c-11.046,0-20,8.954-20,20s8.954,20,20,20s20-8.954,20-20S317.046,376,306,376z M316.417,404.102c0,1.273-1.042,2.315-2.315,2.315
	h-16.204c-1.273,0-2.315-1.042-2.315-2.315v-16.204c0-1.273,1.042-2.315,2.315-2.315h16.204c1.273,0,2.315,1.042,2.315,2.315
	V404.102z"/>
</svg>
