<?xml version="1.0" encoding="utf-8"?>
<!-- Generator: Adobe Illustrator 17.0.0, SVG Export Plug-In . SVG Version: 6.00 Build 0)  -->
<!DOCTYPE svg PUBLIC "-//W3C//DTD SVG 1.1//EN" "http://www.w3.org/Graphics/SVG/1.1/DTD/svg11.dtd">
<svg version="1.1" id="Twitter_w_x2F__circle" xmlns="http://www.w3.org/2000/svg" xmlns:xlink="http://www.w3.org/1999/xlink"
	 x="0px" y="0px" width="40px" height="40px" viewBox="286 376 40 40" enable-background="new 286 376 40 40" xml:space="preserve">
<path fill="#308ECD" d="M306,376c-11.046,0-20,8.954-20,20s8.954,20,20,20s20-8.954,20-20S317.046,376,306,376z M314.135,392.383
	c0.008,0.171,0.01,0.342,0.01,0.508c0,5.208-3.96,11.21-11.206,11.21c-2.225,0-4.296-0.65-6.038-1.771
	c0.306,0.038,0.621,0.052,0.94,0.052c1.846,0,3.544-0.627,4.892-1.685c-1.723-0.033-3.177-1.171-3.679-2.733
	c0.24,0.044,0.485,0.069,0.74,0.069c0.358,0,0.708-0.048,1.038-0.138c-1.802-0.362-3.16-1.954-3.16-3.862v-0.048
	c0.531,0.294,1.14,0.473,1.785,0.494c-1.058-0.708-1.752-1.913-1.752-3.281c0-0.721,0.194-1.4,0.533-1.981
	c1.944,2.383,4.844,3.95,8.119,4.119c-0.069-0.29-0.102-0.59-0.102-0.9c0-2.173,1.763-3.94,3.94-3.94
	c1.131,0,2.156,0.479,2.875,1.246c0.898-0.179,1.74-0.504,2.5-0.956c-0.294,0.919-0.917,1.692-1.731,2.181
	c0.798-0.098,1.556-0.308,2.263-0.623C315.573,391.133,314.904,391.829,314.135,392.383z"/>
</svg>
