<?xml version="1.0" encoding="utf-8"?>
<!-- Generator: Adobe Illustrator 17.0.0, SVG Export Plug-In . SVG Version: 6.00 Build 0)  -->
<!DOCTYPE svg PUBLIC "-//W3C//DTD SVG 1.1//EN" "http://www.w3.org/Graphics/SVG/1.1/DTD/svg11.dtd">
<svg version="1.1" id="Layer_1" xmlns="http://www.w3.org/2000/svg" xmlns:xlink="http://www.w3.org/1999/xlink" x="0px" y="0px"
	 width="16px" height="16px" viewBox="0 0 16 16" enable-background="new 0 0 16 16" xml:space="preserve">
<path fill="#F5002C" d="M15.841,4.8c0,0-0.156-1.103-0.637-1.587c-0.609-0.637-1.291-0.641-1.603-0.678
	c-2.237-0.163-5.597-0.163-5.597-0.163H7.998c0,0-3.359,0-5.597,0.163C2.088,2.573,1.407,2.576,0.798,3.213
	C0.317,3.697,0.164,4.8,0.164,4.8S0.005,6.094,0.005,7.391v1.213c0,1.294,0.159,2.591,0.159,2.591s0.156,1.103,0.634,1.588
	c0.609,0.637,1.409,0.616,1.766,0.684c1.281,0.122,5.441,0.159,5.441,0.159s3.363-0.006,5.6-0.166
	c0.313-0.037,0.994-0.041,1.603-0.678c0.481-0.484,0.637-1.588,0.637-1.588s0.159-1.294,0.159-2.591V7.39
	c-0.003-1.294-0.162-2.591-0.162-2.591L15.841,4.8z M6.347,10.075V5.578l4.322,2.256C10.669,7.834,6.347,10.075,6.347,10.075z"/>
</svg>
