<?xml version="1.0" encoding="utf-8"?>
<!-- Generator: Adobe Illustrator 17.0.0, SVG Export Plug-In . SVG Version: 6.00 Build 0)  -->
<!DOCTYPE svg PUBLIC "-//W3C//DTD SVG 1.1//EN" "http://www.w3.org/Graphics/SVG/1.1/DTD/svg11.dtd">
<svg version="1.1" id="Layer_1" xmlns="http://www.w3.org/2000/svg" xmlns:xlink="http://www.w3.org/1999/xlink" x="0px" y="0px"
	 width="16px" height="16px" viewBox="0 0 16 16" enable-background="new 0 0 16 16" xml:space="preserve">
<path fill="#B07A68" d="M6,14.5C6,15.328,5.328,16,4.5,16S3,15.328,3,14.5S3.672,13,4.5,13S6,13.672,6,14.5z"/>
<path fill="#B07A68" d="M16,14.5c0,0.828-0.672,1.5-1.5,1.5S13,15.328,13,14.5s0.672-1.5,1.5-1.5S16,13.672,16,14.5z"/>
<path fill="#B07A68" d="M16,8V2H4c0-0.552-0.448-1-1-1H0v1h2l0.751,6.438C2.293,8.805,2,9.368,2,10c0,1.105,0.895,2,2,2h12v-1H4
	c-0.552,0-1-0.448-1-1c0-0.003,0-0.007,0-0.01L16,8z"/>
</svg>
