<?xml version="1.0" encoding="utf-8"?>
<!-- Generator: Adobe Illustrator 17.0.0, SVG Export Plug-In . SVG Version: 6.00 Build 0)  -->
<!DOCTYPE svg PUBLIC "-//W3C//DTD SVG 1.1//EN" "http://www.w3.org/Graphics/SVG/1.1/DTD/svg11.dtd">
<svg version="1.1" id="Layer_1" xmlns="http://www.w3.org/2000/svg" xmlns:xlink="http://www.w3.org/1999/xlink" x="0px" y="0px"
	 width="16px" height="16px" viewBox="0 0 16 16" enable-background="new 0 0 16 16" xml:space="preserve">
<path fill="#B07A68" d="M15.504,13.616l-3.79-3.223c-0.392-0.353-0.811-0.514-1.149-0.499C11.46,8.846,12,7.487,12,6.001
	c0-3.314-2.686-6-6-6s-6,2.686-6,6s2.686,6,6,6c1.486,0,2.845-0.54,3.893-1.435c-0.016,0.338,0.146,0.757,0.499,1.149l3.223,3.79
	c0.552,0.613,1.453,0.665,2.003,0.115C16.168,15.07,16.116,14.168,15.504,13.616L15.504,13.616z M6,10c-2.209,0-4-1.791-4-4
	s1.791-4,4-4s4,1.791,4,4S8.209,10,6,10z"/>
</svg>
