<?xml version="1.0" encoding="utf-8"?>
<!-- Generator: Adobe Illustrator 17.0.0, SVG Export Plug-In . SVG Version: 6.00 Build 0)  -->
<!DOCTYPE svg PUBLIC "-//W3C//DTD SVG 1.1//EN" "http://www.w3.org/Graphics/SVG/1.1/DTD/svg11.dtd">
<svg version="1.1" id="Youtube_w_x2F__circle" xmlns="http://www.w3.org/2000/svg" xmlns:xlink="http://www.w3.org/1999/xlink"
	 x="0px" y="0px" width="40px" height="40px" viewBox="286 376 40 40" enable-background="new 286 376 40 40" xml:space="preserve">
<path fill="#F03121" d="M309.34,395.652l-4.679-2.183c-0.408-0.19-0.744,0.023-0.744,0.475v4.112c0,0.452,0.335,0.665,0.744,0.475
	l4.677-2.183C309.748,396.156,309.748,395.844,309.34,395.652z M306,376c-11.046,0-20,8.954-20,20s8.954,20,20,20s20-8.954,20-20
	S317.046,376,306,376z M306,404.125c-10.237,0-10.417-0.923-10.417-8.125s0.179-8.125,10.417-8.125
	c10.237,0,10.417,0.923,10.417,8.125S316.237,404.125,306,404.125z"/>
</svg>
