<?xml version="1.0" encoding="utf-8"?>
<!-- Generator: Adobe Illustrator 17.0.0, SVG Export Plug-In . SVG Version: 6.00 Build 0)  -->
<!DOCTYPE svg PUBLIC "-//W3C//DTD SVG 1.1//EN" "http://www.w3.org/Graphics/SVG/1.1/DTD/svg11.dtd">
<svg version="1.1" id="Layer_1" xmlns="http://www.w3.org/2000/svg" xmlns:xlink="http://www.w3.org/1999/xlink" x="0px" y="0px"
	 width="16px" height="16px" viewBox="0 0 16 16" enable-background="new 0 0 16 16" xml:space="preserve">
<path fill="#00668C" d="M14.5,0h-13C0.675,0,0,0.675,0,1.5v13C0,15.325,0.675,16,1.5,16h13c0.825,0,1.5-0.675,1.5-1.5v-13
	C16,0.675,15.325,0,14.5,0z M11,2.5C11,2.225,11.225,2,11.5,2h2C13.775,2,14,2.225,14,2.5v2C14,4.775,13.775,5,13.5,5h-2
	C11.225,5,11,4.775,11,4.5V2.5z M8,5c1.656,0,3,1.344,3,3s-1.344,3-3,3S5,9.656,5,8S6.344,5,8,5z M14,13.5L14,13.5
	c0,0.275-0.225,0.5-0.5,0.5h-11C2.225,14,2,13.775,2,13.5l0,0V7h1.1C3.034,7.322,3,7.656,3,8c0,2.762,2.237,5,5,5s5-2.238,5-5
	c0-0.344-0.034-0.678-0.1-1H14V13.5z"/>
</svg>
