<?xml version="1.0" encoding="utf-8"?>
<!-- Generator: Adobe Illustrator 17.0.0, SVG Export Plug-In . SVG Version: 6.00 Build 0)  -->
<!DOCTYPE svg PUBLIC "-//W3C//DTD SVG 1.1//EN" "http://www.w3.org/Graphics/SVG/1.1/DTD/svg11.dtd">
<svg version="1.1" id="Layer_1" xmlns="http://www.w3.org/2000/svg" xmlns:xlink="http://www.w3.org/1999/xlink" x="0px" y="0px"
	 width="16px" height="16px" viewBox="0 0 16 16" enable-background="new 0 0 16 16" xml:space="preserve">
<path fill="#51BDFF" d="M16,3.538c-0.588,0.263-1.222,0.438-1.884,0.516c0.678-0.406,1.197-1.05,1.444-1.816
	c-0.634,0.375-1.338,0.65-2.084,0.797c-0.6-0.638-1.453-1.034-2.397-1.034c-1.813,0-3.281,1.469-3.281,3.281
	c0,0.256,0.028,0.506,0.084,0.747C5.154,5.891,2.735,4.585,1.116,2.598c-0.281,0.484-0.444,1.05-0.444,1.65
	c0,1.138,0.578,2.144,1.459,2.731C1.593,6.963,1.087,6.813,0.643,6.57c0,0.013,0,0.028,0,0.041c0,1.591,1.131,2.919,2.634,3.219
	C3.002,9.905,2.711,9.946,2.411,9.946c-0.212,0-0.416-0.022-0.619-0.059c0.419,1.303,1.631,2.253,3.066,2.281
	c-1.125,0.881-2.538,1.406-4.078,1.406c-0.266,0-0.525-0.016-0.784-0.047c1.456,0.934,3.181,1.475,5.034,1.475
	c6.037,0,9.341-5.003,9.341-9.341c0-0.144-0.003-0.284-0.009-0.425c0.641-0.459,1.197-1.038,1.637-1.697L16,3.538z"/>
</svg>
